<?xml version="1.0" encoding="UTF-8"?>
<svg width="770px" height="731px" viewBox="0 0 770 731" version="1.1" xmlns="http://www.w3.org/2000/svg" xmlns:xlink="http://www.w3.org/1999/xlink">
    <!-- Generator: Sketch 61.2 (89653) - https://sketch.com -->
    <title>Path 19</title>
    <desc>Created with Sketch.</desc>
    <g id="Page-1" stroke="none" stroke-width="1" fill="none" fill-rule="evenodd">
        <g id="Desktop" transform="translate(-353.000000, -5200.000000)" fill="#C68B6E">
            <path d="M478.996054,5294.49238 C565.521571,5264.15304 638.331376,5280.89448 732.101752,5278.37547 C750.224521,5277.88863 816.95269,5276.91643 844.405739,5280.95454 C852.066622,5282.08138 859.132715,5284.83256 866.305585,5287.11904 C888.11547,5294.07132 910.169494,5300.68382 931.327224,5308.66228 C957.082068,5318.3743 1009.168,5336.37513 1034.19751,5356.71175 C1060.15302,5377.80075 1085.61663,5414.99318 1096.94223,5435.71384 C1104.8839,5450.24347 1146.27602,5539.26138 1144.96975,5572.22453 C1142.26829,5640.39469 1130.59904,5679.95236 1090.64447,5739.63045 C1080.812,5754.31671 1073.21928,5764.94353 1059.94742,5777.71186 C1035.71244,5801.02739 1020.69857,5806.50519 993.523409,5824.44884 C959.976913,5846.59945 934.202275,5871.17501 889.794102,5881.18065 C808.387286,5899.52249 719.661026,5890.31676 641.107682,5868.83633 C621.113902,5863.36903 607.230767,5867.24229 531.096141,5840.10691 C495.184399,5827.30749 468.222131,5803.75288 440.707526,5783.40188 C417.278829,5766.073 411.141995,5765.88578 395.236365,5746.37276 C379.221344,5726.72554 359.924142,5686.58709 353.154712,5670.66529 C351.115598,5665.86926 352.173648,5660.62715 351.17793,5655.6539 C350.469872,5652.1174 349.240212,5648.6462 348.052338,5645.18074 C324.317107,5575.93644 288.716405,5490.99188 301.810129,5417.47288 C304.595474,5401.83364 326.310533,5381.74932 336.548709,5369.12877 C345.865445,5357.64408 351.435848,5345.52327 368.001277,5338.47844 C390.252912,5329.01542 392.470537,5324.83172 478.996054,5294.49238 Z" id="Path-19" transform="translate(722.000000, 5583.500000) rotate(28.000000) translate(-722.000000, -5583.500000) "></path>
        </g>
    </g>
</svg>