<?xml version="1.0" encoding="UTF-8"?>
<svg width="668px" height="616px" viewBox="0 0 668 616" version="1.1" xmlns="http://www.w3.org/2000/svg" xmlns:xlink="http://www.w3.org/1999/xlink">
    <!-- Generator: Sketch 61.2 (89653) - https://sketch.com -->
    <title>Path</title>
    <desc>Created with Sketch.</desc>
    <g id="Page-1" stroke="none" stroke-width="1" fill="none" fill-rule="evenodd">
        <g id="Desktop" transform="translate(-397.000000, -320.000000)" fill="#ED9A12">
            <path d="M635.317054,324.379556 C592.361233,331.958423 534.923181,354.308459 490.374781,389.047664 C445.826382,423.786869 415.227017,497.539239 405.395801,555.536615 C396.644396,607.163858 385.602048,647.454979 425.0629,743.288997 C429.188265,753.307795 441.26733,773.588795 445.826382,780.80488 C485.275006,843.244319 523.360647,865.624939 592.361233,897.168366 C620.618528,910.08611 653.135266,923.393328 683.837925,928.639247 C725.326478,935.728066 760.787675,937.91582 805.300104,934.242885 C859.140836,929.800226 903.292822,900.061246 948.425608,874.485643 C993.385689,849.007906 1033.18576,832.245353 1052.95283,780.201497 C1062.60642,754.785001 1058.86957,755.03852 1061.31412,726.4278 C1065.88927,672.880796 1067.90948,621.389076 1057.03846,568.464424 C1051.78755,542.900802 1046.19037,517.405956 1040.26,491.991244 C1039.11694,487.092626 1037.67855,482.243495 1035.82785,477.565926 C1033.91367,472.727901 1023.06657,467.374821 1019.96042,463.816621 C1014.62105,457.700208 1009.49265,451.385782 1004.70778,444.826824 C991.846727,427.197276 981.704856,410.210311 963.197582,397.327191 C924.027986,370.060797 886.061658,340.826678 840.815622,331.958423 C761.294007,316.372132 668.447351,318.534246 635.317054,324.379556 Z" id="Path"></path>
        </g>
    </g>
</svg>