<?xml version="1.0" encoding="UTF-8"?>
<svg width="337px" height="321px" viewBox="0 0 337 321" version="1.1" xmlns="http://www.w3.org/2000/svg" xmlns:xlink="http://www.w3.org/1999/xlink">
    <!-- Generator: Sketch 61.2 (89653) - https://sketch.com -->
    <title>dots</title>
    <desc>Created with Sketch.</desc>
    <g id="Website" stroke="none" stroke-width="1" fill="none" fill-rule="evenodd">
        <g id="Desktop-Copy" transform="translate(-797.000000, -1919.000000)">
            <g id="dots" transform="translate(797.000000, 1919.000000)">
                <path d="M28.5280564,8.7135108 C16.1410639,12.7159396 10.4024695,33.0907451 12.3836162,44.5853846 C14.7506642,58.3190282 31.0591553,63.7921524 40.9150489,65.6244662 C66.1826015,70.3219688 85.6599718,29.7374568 62.9743229,11.600993 C54.3562096,4.71108203 40.9150489,4.71108203 28.5280564,8.7135108 Z" id="Path-2-Copy-3" fill="#ED9A12"></path>
                <path d="M296.692192,129.74408 C278.446804,129.74408 268.390001,148.617411 271.587859,165.465783 C274.390308,180.230886 291.725,187.279026 304.923576,188.749045 C332.773296,191.850866 354.256626,165.626572 336.561099,141.733339 C328.054178,130.246942 312.829579,129.89822 300.298624,129 L296.692192,129.74408 Z" id="Path-11-Copy-2" fill="#ED9A12" transform="translate(307.000000, 159.000000) rotate(-90.000000) translate(-307.000000, -159.000000) "></path>
                <path d="M174.690804,3.45517147 C164.319392,3.45517147 149.918323,7.33072346 145.336749,9.52387845 C128.952486,17.3668666 132.320742,47.6755134 142.865939,58.4402094 C153.765077,69.5662153 173.215696,70.3616723 187.055011,68.9066646 C205.294618,66.9890285 213.279995,44.0652598 210.439859,29.1614625 C206.538671,8.68972199 185.062216,3.45517147 174.690804,3.45517147 Z" id="Path-12-Copy" fill="#C68B6E"></path>
                <path d="M174.185882,127.422718 C155.236331,127.422718 144.612255,157.150212 148.284977,172.934829 C151.896994,188.458548 174.104874,194.459924 187.172832,194.912276 C192.38125,195.092568 198.037316,196.169047 202.781503,194.01201 C220.8385,185.802046 224.440794,155.803402 213.073737,141.595829 C202.976352,128.975208 191.065445,127.422718 174.185882,127.422718 Z" id="Path-13-Copy" fill="#C0602E"></path>
                <path d="M16.4731623,135.355986 C-27.4950944,165.208473 26.2513629,218.237513 64.6374097,198.648357 C87.6634215,186.897729 95.1897947,146.969514 68.8710945,132.101645 C54.7362169,124.116618 34.4094455,126.207162 20.4756976,133.525039 L16.4731623,135.355986 Z" id="Path-14-Copy" fill="#C68B6E"></path>
                <path d="M267.816072,13.8217579 C264.321946,19.6222853 261.020684,27.5434927 260.311743,33.4728112 C256.806565,62.7888461 283.471446,76.5277114 309.531697,70.8581709 C356.463227,60.6479775 335.385833,2.04112394 302.686547,0.278569594 C284.564484,-0.698244404 275.989991,0.252400165 267.816072,13.8217579 Z" id="Path-15-Copy" fill="#763248"></path>
                <path d="M39.4871875,259.912324 C-4.03612331,277.454234 32.9697897,334.768055 69.2495695,301.416615 C74.3548437,296.723416 75.5446413,282.779707 74.3548437,277.2799 C71.3468068,263.375332 48.2167299,251.257893 36.2762301,261.424628" id="Path-16-Copy" fill="#763248"></path>
                <path d="M151.611066,271.742837 C142.84244,290.875842 145.127529,312.283293 167.946499,318.847992 C184.857716,323.713114 213.307757,315.138715 221.510969,298.122517 C224.002172,292.95493 222.418656,286.632311 221.860985,280.925963 C220.438565,266.371104 190.797184,262.624012 180.136482,260.547322 C169.475779,258.470632 154.171567,266.155864 151.611066,271.742837 Z" id="Path-17-Copy" fill="#C68B6E"></path>
                <path d="M302.047403,270.902609 C295.76871,272.280672 289.004445,275.142417 285.816146,280.573789 C273.99122,300.717935 298.549859,312.643831 313.039374,311.009042 C326.132772,309.53177 328.576384,291.91996 326.738748,282.232457 C325.480789,275.600846 310.484259,269.050868 302.047403,270.902609 Z" id="Path-18-Copy" fill="#C68B6E"></path>
            </g>
        </g>
    </g>
</svg>