<?xml version="1.0" encoding="UTF-8"?>
<svg width="400px" height="500px" viewBox="0 0 400 500" version="1.1" xmlns="http://www.w3.org/2000/svg" xmlns:xlink="http://www.w3.org/1999/xlink">
    <!-- Generator: Sketch 61.2 (89653) - https://sketch.com -->
    <title>scale</title>
    <desc>Created with Sketch.</desc>
    <g id="Website" stroke="none" stroke-width="1" fill="none" fill-rule="evenodd">
        <g id="Desktop-Copy" transform="translate(-214.000000, -1170.000000)">
            <g id="scale" transform="translate(214.000000, 1170.000000)">
                <path d="M222.193114,2.48294135 C226.724663,3.40193279 230.904384,5.64563115 235.147265,7.51034771 C248.048202,13.1802194 261.093552,18.5729776 273.608728,25.0797442 C288.843179,33.00029 319.65294,47.680705 334.458344,64.2660519 C349.811494,81.4649972 364.873672,111.796947 371.572967,128.695494 C376.27061,140.545003 400.75479,213.142754 399.982106,240.025551 C398.384142,295.621104 391.481576,327.882005 367.84773,376.551933 C362.031648,388.529176 357.540422,397.195784 349.689879,407.608884 C335.354451,426.623652 326.473476,431.091024 310.398885,445.724801 C290.555532,463.789533 275.309372,483.831906 249.041143,491.991918 C222.002242,500.391334 193.598233,501.707217 165.660999,498.144768 C165.101875,493.139219 164.455447,488.124602 164.351954,483.226041 C163.58052,446.712453 161.60071,451.779716 157.442375,408.431949 C156.601348,399.664821 156.886159,390.805221 155.928526,382.050487 C154.575073,369.677142 151.297381,357.533889 150.515882,345.109555 C149.488306,328.773081 149.991212,312.36104 150.515882,295.999845 C151.046574,279.450853 154.229617,265.636567 153.336377,249.23525 C152.943614,242.023489 152.262725,234.814581 151.145947,227.681712 C149.987232,220.280985 146.655877,213.190663 146.519828,205.697877 C145.278603,137.33879 146.224632,68.9591438 146.467174,0.586109923 C149.527431,0.561770232 152.625524,0.495822311 155.763295,0.379606848 C166.483238,-0.0174339512 205.954144,-0.81029726 222.193114,2.48294135 Z" id="Combined-Shape" fill="#763248"></path>
                <path d="M83.7475022,49.5714295 C93.4039401,53.1971982 100.109107,50.6285573 136.880006,68.6240159 C154.224374,77.1122466 167.246397,92.733036 180.535184,106.229274 C191.85059,117.721325 194.81451,117.845485 202.496485,130.785997 C210.231293,143.815507 260.851163,220.085783 254.52726,268.841616 C253.182016,279.213137 227.747113,365.552236 222.80236,373.921844 C218.302636,381.538185 217.129954,390.268754 209.129314,394.940698 C198.382395,401.21632 199.210141,408.917435 157.420731,429.037673 C133.358244,440.622977 113.80251,447.609811 92.895524,451.771621 C91.5750831,442.619461 88.1036266,433.499239 89.406148,424.315678 C89.7929768,421.588302 88.511445,418.734105 89.406148,416.082305 C94.1722134,401.956222 90.663498,409.674398 92.624344,394.337199 C94.5280937,379.44659 90.8782046,356.516747 90.1347715,342.355865 C89.6439457,333.006637 90.4548948,323.621396 89.6295077,314.286889 C86.7340385,281.541315 95.9879731,300.788454 86.7937725,267.92516 C81.4747064,248.912955 82.5359324,222.558079 81.0033244,201.212334 C78.0721144,160.387241 75.784383,155.785641 75.784383,113.589355 C75.784383,102.33865 79.1679856,69.4721778 77.0716345,47.1685699 C79.3129499,47.940207 81.538554,48.7420206 83.7475022,49.5714295 Z" id="Combined-Shape-Copy" fill="#C0602E"></path>
                <path d="M24.1767689,115.576219 C29.9856029,115.362237 51.3737719,114.93493 60.1732108,116.709794 C62.6287295,117.205077 64.893602,118.4143 67.1926994,119.419273 C74.1833528,122.475004 81.2522595,125.381387 88.0338796,128.888155 C96.2889985,133.156868 112.983937,141.068757 121.006567,150.007293 C129.326006,159.276523 137.487774,175.623678 141.117933,184.731011 C143.663453,191.117206 156.930738,230.243167 156.512043,244.731429 C155.646151,274.694195 151.905846,292.080942 139.099332,318.3112 C135.947762,324.766236 133.514093,329.437033 129.260106,335.049088 C121.492143,345.296941 116.679793,347.704594 107.969426,355.591347 C97.216874,365.327187 88.9554108,376.128858 74.7213995,380.52663 C53.7693609,387.000018 31.3046506,385.666604 10.230062,380.001844 C10.1057128,378.713898 10.0112719,377.432656 9.98441648,376.165813 C9.56713305,356.481428 8.49621525,359.213177 6.24689137,335.844503 C5.79196341,331.118165 5.94602331,326.341977 5.42802112,321.622321 C4.6959121,314.951881 2.92294489,308.405483 2.50021688,301.707556 C1.94438143,292.900603 2.21641288,284.052912 2.50021688,275.232632 C2.78727846,266.311111 4.50904826,258.863864 4.02587737,250.021954 C3.81342411,246.134111 3.44511807,242.247807 2.84103159,238.402495 C2.21426006,234.412781 0.41226581,230.590406 0.3386739,226.551064 C-0.337702235,189.42586 0.186643166,152.289408 0.313044657,115.156684 C7.90459579,115.533993 15.7784012,115.885593 24.1767689,115.576219 Z" id="Combined-Shape-Copy-2" fill="#ED9A12"></path>
            </g>
        </g>
    </g>
</svg>