<?xml version="1.0" encoding="UTF-8"?>
<svg width="574px" height="705px" viewBox="0 0 574 705" version="1.1" xmlns="http://www.w3.org/2000/svg" xmlns:xlink="http://www.w3.org/1999/xlink">
    <!-- Generator: Sketch 61.2 (89653) - https://sketch.com -->
    <title>Group</title>
    <desc>Created with Sketch.</desc>
    <g id="Page-1" stroke="none" stroke-width="1" fill="none" fill-rule="evenodd">
        <g id="Desktop" transform="translate(-54.000000, -1938.000000)">
            <g id="Group" transform="translate(54.000000, 1938.000000)">
                <path d="M318.473065,3.49997535 C324.974855,4.79539353 330.971846,7.95812992 337.059459,10.5866503 C355.569503,18.5789499 374.286749,26.180628 392.243308,35.3526219 C414.101439,46.5174908 458.306756,67.2111294 479.549296,90.5899761 C501.577734,114.833756 523.188689,157.589932 532.800722,181.410269 C539.540821,198.113438 574.670303,300.447847 573.56167,338.342069 C571.268937,416.710036 561.365254,462.185277 527.455816,530.790823 C519.111001,547.674047 512.667066,559.890572 501.403242,574.568967 C480.835016,601.372347 468.092745,607.669592 445.029196,628.297489 C416.558293,653.76169 394.683364,682.01359 356.994158,693.516013 C318.199557,705.355794 277.446358,707.210748 237.362844,702.189259 C236.559549,695.133387 235.63205,688.064675 235.483559,681.159558 C234.376719,629.689692 231.536121,636.83255 225.569813,575.729167 C224.363121,563.370948 224.771764,550.88238 223.397768,538.541632 C221.455857,521.100059 216.75308,503.982826 215.631799,486.469379 C214.157451,463.441346 214.879012,440.306792 215.631799,417.243912 C216.393226,393.916311 220.960203,374.443576 219.678597,351.324139 C219.115067,341.158378 218.138139,330.99664 216.535806,320.942087 C214.873301,310.509959 210.093531,300.51538 209.898329,289.953486 C208.117444,193.594117 209.474782,97.2057664 209.82278,0.826737247 C214.214375,0.791859632 218.659077,0.69890084 223.160698,0.535097057 C238.541488,-0.0245750466 295.173669,-1.14220194 318.473065,3.49997535 Z" id="Combined-Shape" fill="#C07B2E"></path>
                <path d="M120.436177,70.0768474 C134.261664,75.1885529 143.861704,71.5672144 196.507987,96.9376923 C221.340575,108.904627 239.984696,130.927232 259.010754,149.954589 C275.211448,166.15639 279.455003,166.331433 290.453578,184.575313 C301.527794,202.944664 374.002172,310.472535 364.948002,379.209809 C363.021965,393.831858 326.605854,515.555023 319.526265,527.354721 C313.083841,538.092441 311.404867,550.401031 299.950049,556.987662 C284.56328,565.835202 285.748394,576.692439 225.91692,605.058488 C191.465657,621.391801 163.466919,631.242035 133.533509,637.10946 C131.643245,624.206517 126.673,611.348554 128.537874,598.401293 C129.091711,594.556165 127.256894,590.532242 128.537874,586.793664 C135.36163,566.878335 130.33807,577.759626 133.145487,556.136832 C135.871157,535.143655 130.645473,502.816551 129.581072,482.852161 C128.878338,469.67137 130.039404,456.439806 128.857667,443.27977 C124.712114,397.114184 137.961321,424.249314 124.797637,377.917766 C117.18213,351.113851 118.701527,313.958043 116.507234,283.864242 C112.31051,226.307937 109.035079,219.820479 109.035079,160.331027 C109.035079,144.469308 113.879618,98.1324266 110.877986,66.6881863 C114.086753,67.7769968 117.273389,68.9074679 120.436177,70.0768474 Z" id="Combined-Shape-Copy" fill="#C68B6E"></path>
                <path d="M34.5935572,163.471632 C42.905182,163.170026 73.5086447,162.567741 86.0994046,165.069395 C89.6129066,165.767492 92.8536208,167.47188 96.1433059,168.888381 C106.145948,173.195405 116.26056,177.291925 125.964105,182.234683 C137.776019,188.251394 161.664129,199.403129 173.143385,212.001913 C185.047332,225.066807 196.725675,248.107971 201.919922,260.944673 C205.562203,269.945957 224.545823,325.093637 223.946729,345.51471 C222.707759,387.746952 217.355908,412.253412 199.031588,449.224718 C194.522133,458.323032 191.039896,464.906477 184.953038,472.816617 C173.838175,487.260871 166.952379,490.654436 154.489069,501.770742 C139.103678,515.493318 127.282686,530.718174 106.915817,536.916793 C76.9366595,546.040894 44.7931193,544.161572 14.6385764,536.177323 C14.4598449,534.361639 14.3247212,532.555804 14.2862962,530.770262 C13.6892223,503.025302 12.1568895,506.875678 8.93842327,473.937747 C8.28748532,467.276018 8.50792336,460.544024 7.76673507,453.891713 C6.71919,444.48979 4.18232319,435.262702 3.57745883,425.822035 C2.78213646,413.408716 3.17137521,400.937977 3.57745883,388.505874 C3.98820359,375.931072 6.4518141,365.434246 5.7604645,352.971656 C5.45647375,347.491777 4.92947958,342.014067 4.06511677,336.594135 C3.16829483,330.97067 0.589894411,325.583068 0.484594735,319.889652 C-0.483197498,267.562394 0.267049398,215.219281 0.447919012,162.881423 C11.3095421,163.412078 22.5762347,163.907707 34.5935572,163.471632 Z" id="Combined-Shape-Copy-2" fill="#ED9A12"></path>
            </g>
        </g>
    </g>
</svg>