<?xml version="1.0" encoding="UTF-8"?>
<svg width="333px" height="197px" viewBox="0 0 333 197" version="1.1" xmlns="http://www.w3.org/2000/svg" xmlns:xlink="http://www.w3.org/1999/xlink">
    <!-- Generator: Sketch 61.2 (89653) - https://sketch.com -->
    <title>splat-small</title>
    <desc>Created with Sketch.</desc>
    <g id="Website" stroke="none" stroke-width="1" fill="none" fill-rule="evenodd">
        <path d="M324.306343,23.452341 C329.837038,36.5188796 332.032974,55.4195932 332.219273,65.7186637 L332.229194,66.2181768 C332.312892,73.3546626 330.07317,115.606123 322.907356,127.882601 C308.236133,153.017353 295.889611,165.702635 269.162007,180.131994 L268.34766,180.569796 C261.631151,184.165721 256.589049,186.670868 248.950317,188.840459 C235.001664,192.802226 228.174149,191.845238 214.192158,193.167703 C196.932025,194.800225 182.141961,198.929522 163.201011,193.741375 C128.826634,184.325831 97.1812445,163.185134 71.7326532,139.395218 L70.9633841,138.67351 C64.4529334,132.5437 58.3807501,131.205283 34.8672565,105.460382 C23.7762383,93.3168379 18.2701364,78.8941166 11.9055589,65.5783572 C6.48611887,54.2399833 4.18622226,52.9257396 2.07445927,42.280191 C-0.0518272423,31.5614282 0.716794857,12.3818259 1.35890592,4.95311741 C1.51583218,3.13760684 2.50878742,1.62332246 3.21260585,-0.00166464584 L308.488589,-0.00166464584 L309.500375,1.22618092 C315.563663,8.63009648 321.440941,16.6826894 324.306343,23.452341 Z" id="splat-small" fill="#C68B6E"></path>
    </g>
</svg>