<?xml version="1.0" encoding="UTF-8"?>
<svg width="584px" height="255px" viewBox="0 0 584 255" version="1.1" xmlns="http://www.w3.org/2000/svg" xmlns:xlink="http://www.w3.org/1999/xlink">
    <!-- Generator: Sketch 61.2 (89653) - https://sketch.com -->
    <title>splat-big</title>
    <desc>Created with Sketch.</desc>
    <g id="Website" stroke="none" stroke-width="1" fill="none" fill-rule="evenodd">
        <path d="M0,254.892829 C27.9145465,172.709207 1.24658549,234.764508 42.2986438,170.586313 C52.3436732,154.882549 79.3201126,102.883504 97.1996567,82.1768274 C102.184047,76.4043 109.141444,72.6420991 114.554232,67.269702 C149.272472,32.8105296 155.92276,21.3561215 203.272103,3.9294666 C220.549463,-2.42936702 259.857516,0.678894804 266.554644,1.35131638 C267.22344,1.41846648 385.66686,13.4740999 420.259433,28.0156093 C446.786476,39.1666512 480.167149,83.6214676 498.891399,106.473636 C516.084588,127.457207 544.579748,138.020608 558.203742,162.149643 C575.096602,192.068063 580.11353,221.604325 584,254.892829 C455.11807,255.009552 154.13473,255.059711 0,254.892829 Z" id="splat-big" fill="#C68B6E"></path>
    </g>
</svg>